<?xml version="1.0" encoding="UTF-8"?>
<!DOCTYPE svg PUBLIC "-//W3C//DTD SVG 1.1//EN" "http://www.w3.org/Graphics/SVG/1.1/DTD/svg11.dtd">
<!-- Creator: CorelDRAW X7 -->
<svg xmlns="http://www.w3.org/2000/svg" xml:space="preserve" width="39.301mm" height="12.2441mm" version="1.1" shape-rendering="geometricPrecision" text-rendering="geometricPrecision" image-rendering="optimizeQuality" fill-rule="evenodd" clip-rule="evenodd"
viewBox="0 0 660 206"
 xmlns:xlink="http://www.w3.org/1999/xlink">
 <g id="Слой_x0020_1">
  <metadata id="CorelCorpID_0Corel-Layer"/>
  <path fill="#00005C" fill-rule="nonzero" d="M179 206l-174 0c-3,0 -5,-2 -5,-5l0 -197c0,-2 2,-4 5,-4l174 0c3,0 5,2 5,4l0 197c0,3 -2,5 -5,5l0 0z"/>
  <path fill="red" fill-rule="nonzero" d="M519 0l138 0 0 42 -139 0c-11,0 -17,6 -20,16l0 3c0,7 4,12 11,16 2,1 4,2 7,2l69 0c18,0 30,1 37,5 16,7 27,18 33,33 1,4 3,9 3,13 1,5 2,9 2,13 0,11 -3,20 -7,29 -5,8 -12,16 -22,23 -3,2 -6,4 -9,5 -3,2 -7,3 -10,4 -3,0 -7,1 -11,1 -5,0 -10,0 -17,0l-129 0 0 -42 139 0c11,0 19,-6 22,-17l0 -4c1,-4 0,-8 -2,-11 -3,-3 -6,-6 -10,-8 -2,-1 -6,-2 -11,-2l-78 0c-20,0 -37,-9 -51,-27 -6,-10 -9,-20 -9,-31l0 -5c0,-21 10,-38 31,-50 8,-5 19,-8 33,-8z"/>
  <path fill="#00005C" fill-rule="nonzero" d="M228 40l0 -40 131 0c23,0 41,7 55,21 5,6 9,11 12,16 2,5 4,10 5,15 2,5 2,10 2,15l0 6c0,7 -1,15 -4,22 -3,8 -8,15 -15,22 -4,4 -8,8 -12,10 -4,3 -7,4 -11,5 18,19 26,43 26,74l-41 0 0 -4c0,-22 -9,-40 -27,-53 -10,-7 -24,-11 -40,-11l-81 0 0 -40 134 0c14,0 24,-7 30,-22 0,-1 0,-2 0,-4 1,-1 1,-2 1,-3 0,-8 -4,-15 -10,-22 -6,-4 -12,-7 -19,-7 0,0 -2,0 -6,0l-130 0z"/>
  <polygon fill="red" fill-rule="nonzero" points="165,205 165,0 206,0 206,205 "/>
  <path fill="#2B2A29" fill-rule="nonzero" d="M10 151c7,1 12,0 17,-4 2,-3 6,-8 10,-4 3,4 0,11 1,15 3,5 8,7 11,12 5,7 7,28 -7,26 -6,-1 -10,-5 -14,-9 -4,-3 -8,-5 -13,-7 -9,-3 -6,-16 -6,-25 0,-1 0,-2 0,-3l1 -1z"/>
  <path fill="#2B2A29" fill-rule="nonzero" d="M137 80c0,36 -29,65 -65,65 -36,0 -65,-29 -65,-65 0,-36 29,-65 65,-65 36,0 65,29 65,65z"/>
  <path fill="#2B2A29" fill-rule="nonzero" d="M137 80c0,36 -29,65 -65,65 -36,0 -65,-29 -65,-65 0,-36 29,-65 65,-65 36,0 65,29 65,65z"/>
  <path fill="#2B2A29" fill-rule="nonzero" d="M10 151c7,1 12,0 17,-4 2,-3 6,-8 10,-4 3,4 0,11 1,15 3,5 8,7 11,12 5,7 7,28 -7,26 -6,-1 -10,-5 -14,-9 -4,-3 -8,-5 -13,-7 -9,-3 -6,-16 -6,-25 0,-1 0,-2 0,-3l1 -1z"/>
  <path fill="white" d="M137 80c0,36 -29,65 -65,65 -36,0 -65,-29 -65,-65 0,-36 29,-65 65,-65 36,0 65,29 65,65z"/>
  <path fill="white" fill-rule="nonzero" stroke="#00005C" stroke-width="1.27894" d="M83 135c-2,0 -3,-2 -3,-3 0,-2 1,-3 3,-3 1,0 2,1 2,3 0,1 -1,3 -2,3zm-7 6c-1,3 -5,8 -8,6 -7,-4 8,-13 8,-6zm9 -14c-5,-1 -10,4 -13,6 -5,4 -10,8 -15,12 -6,3 -12,4 -17,6 -10,5 4,20 9,24 5,4 7,3 9,-2 2,-4 4,-6 7,-10 2,-3 4,-6 7,-9 4,-6 8,-11 13,-17 2,-3 4,-8 0,-10z"/>
  <path fill="white" fill-rule="nonzero" d="M10 151c7,1 12,0 17,-4 2,-3 6,-8 10,-4 3,4 0,11 1,15 3,5 8,7 11,12 5,7 7,28 -7,26 -6,-1 -10,-5 -14,-9 -4,-3 -8,-5 -13,-7 -9,-3 -6,-16 -6,-25 0,-1 0,-2 0,-3l1 -1z"/>
  <circle fill="white" stroke="#00005C" stroke-width="3.35679" cx="8" cy="8" r="6"/>
  <circle fill="white" stroke="#00005C" stroke-width="3.35679" cx="8" cy="198" r="6"/>
  <circle fill="white" stroke="#00005C" stroke-width="3.35679" cx="137" cy="198" r="6"/>
  <circle fill="white" stroke="#00005C" stroke-width="3.35679" cx="137" cy="8" r="6"/>
  <path fill="white" fill-rule="nonzero" d="M184 180c1,0 3,0 4,1 1,0 2,1 3,2 1,1 1,1 1,2 0,1 0,2 0,3l0 5 -17 0 0 -5c0,-1 1,-2 1,-3 0,-1 0,-2 1,-2 0,-1 1,-2 3,-2 1,-1 2,-1 4,-1zm0 4c-1,0 -2,0 -3,0 -1,0 -1,1 -2,2 0,0 0,0 0,1 0,0 0,1 0,2l0 1 10 0 0 -1c0,-1 0,-2 0,-2 0,-1 0,-1 0,-2 -1,0 -2,-1 -2,-1 -1,0 -2,0 -3,0zm8 -20l0 4 -3 1 0 5 3 1 0 4 -17 -6 0 -4 17 -5zm-6 5l-6 2 6 2 0 -4zm-7 -18l0 4 13 0 0 4 -13 0 0 4 -4 0 0 -12 4 0zm13 -16l0 4 -3 1 0 5 3 1 0 4 -17 -5 0 -5 17 -5zm-6 6l-6 2 6 1 0 -3zm-5 -23c-1,0 -1,0 -1,1 -1,0 -1,0 -1,0 0,1 0,1 0,1 0,1 0,1 0,1l0 2 4 0 0 -1c0,-1 0,-1 0,-2 0,0 0,-1 -1,-1 0,0 0,0 0,0 -1,-1 -1,-1 -1,-1zm11 -5l0 4 -6 4 0 2 6 0 0 3 -17 0 0 -6c0,-1 0,-1 1,-2 0,-1 0,-1 0,-2 1,0 1,-1 2,-1 0,0 1,0 2,0 1,0 2,0 3,0 1,1 2,1 2,2l7 -4zm0 -12l0 10 -17 0 0 -10 4 0 0 6 3 0 0 -6 3 0 0 6 4 0 0 -6 3 0zm1 -10c0,1 0,2 -1,3 0,1 -1,2 -2,2 0,1 -1,2 -2,2 -1,0 -3,0 -4,0 -1,0 -3,0 -4,0 -1,0 -2,-1 -3,-2 0,0 -1,-1 -1,-2 -1,-1 -1,-2 -1,-3 0,0 0,-1 0,-1 0,-1 0,-1 0,-2 1,0 1,-1 1,-1 0,0 0,-1 0,-1l5 0 0 1c-1,0 -1,0 -1,0 0,0 -1,1 -1,1 0,1 0,1 0,1 -1,1 -1,1 -1,2 0,0 0,1 1,1 0,1 0,1 1,1 0,1 1,1 1,1 1,1 2,1 3,1 1,0 2,0 3,-1 0,0 1,0 1,-1 1,0 1,-1 1,-1 0,0 0,-1 0,-1 0,-1 0,-1 0,-2 0,0 0,-1 0,-1 -1,0 -1,-1 -1,-1 0,0 -1,0 -1,0l0 -1 4 0c0,0 1,1 1,1 0,0 0,1 0,1 0,1 1,1 1,1 0,1 0,1 0,2zm-9 -21c3,0 5,0 6,2 2,1 3,3 3,5 0,2 -1,4 -3,5 -1,2 -3,2 -6,2 -3,0 -5,0 -7,-2 -1,-1 -2,-3 -2,-5 0,-2 1,-4 2,-5 2,-2 4,-2 7,-2zm4 4c0,0 -1,0 -2,0 0,-1 -1,-1 -2,-1 -1,0 -2,0 -3,1 0,0 -1,0 -1,0 -1,1 -1,1 -1,2 -1,0 -1,0 -1,1 0,0 0,1 1,1 0,1 0,1 1,1 0,1 1,1 1,1 1,0 2,0 3,0 1,0 2,0 2,0 1,0 2,0 2,-1 1,0 1,0 1,-1 0,0 1,-1 1,-1 0,-1 -1,-1 -1,-1 0,-1 0,-1 -1,-2zm-13 -20l17 5 0 4 -17 5 0 -4 12 -3 -12 -3 0 -4zm17 -13l0 11 -17 0 0 -11 4 0 0 7 3 0 0 -6 3 0 0 6 4 0 0 -7 3 0zm-11 -11c-1,0 -1,0 -1,1 -1,0 -1,0 -1,0 0,1 0,1 0,1 0,1 0,1 0,1l0 2 4 0 0 -1c0,-1 0,-2 0,-2 0,0 0,-1 -1,-1 0,0 0,0 0,0 -1,-1 -1,-1 -1,-1zm11 -5l0 4 -6 4 0 2 6 0 0 3 -17 0 0 -6c0,-1 0,-1 1,-2 0,-1 0,-1 0,-2 1,0 1,-1 2,-1 0,0 1,0 2,0 1,0 2,0 3,0 1,1 2,1 2,2l7 -4zm-17 -15l11 6 6 0 0 3 -6 0 -11 6 0 -4 7 -4 -7 -3 0 -4z"/>
  <line fill="none" stroke="white" stroke-width="3.35679" x1="161" y1="0" x2="161" y2= "206" />
  <path fill="#00005C" fill-rule="nonzero" d="M101 80c0,16 -13,29 -29,29 -16,0 -28,-13 -28,-29 0,-16 12,-29 28,-29 16,0 29,13 29,29z"/>
  <path fill="white" fill-rule="nonzero" d="M99 80c0,15 -12,27 -27,27 -15,0 -27,-12 -27,-27 0,-15 12,-27 27,-27 15,0 27,12 27,27z"/>
  <path fill="#00005C" fill-rule="nonzero" d="M98 80c0,14 -12,26 -26,26 -14,0 -25,-12 -25,-26 0,-14 11,-25 25,-25 14,0 26,11 26,25z"/>
  <path fill="white" fill-rule="nonzero" d="M81 80c0,5 -4,9 -9,9 -5,0 -9,-4 -9,-9 0,-5 4,-9 9,-9 5,0 9,4 9,9z"/>
  <path fill="#00005C" fill-rule="nonzero" d="M99 115c-2,0 -5,5 -7,6 -2,1 -5,2 -7,3 0,0 0,0 0,0 -5,1 -12,5 -13,10l0 0c4,-1 6,-5 10,-6 0,0 1,0 1,0 1,2 2,3 4,3 0,1 -1,2 -2,3 -1,2 -10,8 -6,10 2,2 4,-3 6,-4 3,-4 7,-6 6,-11 3,-2 4,-6 7,-8 0,-1 5,-5 1,-6z"/>
  <path fill="#00005C" fill-rule="nonzero" d="M64 157c0,4 -4,7 -8,7 -4,0 -8,-3 -8,-7 0,-4 4,-8 8,-8 4,0 8,4 8,8z"/>
 </g>
</svg>
