<?xml version="1.0" encoding="UTF-8"?>
<!DOCTYPE svg PUBLIC "-//W3C//DTD SVG 1.1//EN" "http://www.w3.org/Graphics/SVG/1.1/DTD/svg11.dtd">
<!-- Creator: CorelDRAW X7 -->
<svg xmlns="http://www.w3.org/2000/svg" xml:space="preserve" width="80.6199mm" height="20.4785mm" version="1.1" shape-rendering="geometricPrecision" text-rendering="geometricPrecision" image-rendering="optimizeQuality" fill-rule="evenodd" clip-rule="evenodd"
viewBox="0 0 4424 1124"
 xmlns:xlink="http://www.w3.org/1999/xlink">
 <g id="Слой_x0020_1">
  <metadata id="CorelCorpID_0Corel-Layer"/>
  <polygon fill="red" fill-rule="nonzero" points="0,1120 0,957 33,957 33,1120 "/>
  <path id="1" fill="red" fill-rule="nonzero" d="M199 989c1,2 3,4 4,6 1,2 2,4 3,5 1,2 2,5 3,7 1,2 2,5 3,8 2,8 3,18 3,31l0 74 -33 0 0 -77c0,-13 -3,-24 -8,-33 -6,-9 -15,-15 -27,-19 -3,-1 -5,-2 -8,-2 -2,-1 -4,-1 -6,-1 -2,0 -4,0 -7,1 -2,0 -5,1 -7,2 -12,4 -21,10 -27,19 -6,9 -9,20 -9,33l0 77 -33 0 0 -74c0,-13 2,-23 4,-31 1,-3 2,-6 3,-8 1,-3 2,-5 3,-7 1,-3 4,-7 7,-11 9,-11 19,-19 30,-24 11,-6 23,-8 36,-8 26,0 48,11 66,32z"/>
  <path id="2" fill="red" fill-rule="nonzero" d="M311 1054l0 -31 85 0 0 31 -85 0zm0 -97l86 0 0 31 -77 1c-13,0 -23,2 -30,7 -5,2 -10,6 -14,11 -3,5 -6,10 -9,17 0,2 -1,5 -1,10 -1,5 -1,11 -1,19l0 67 -33 0 0 -73c0,-9 1,-17 2,-24 1,-7 3,-12 5,-17 2,-5 4,-9 7,-13 3,-4 6,-8 9,-11 4,-4 8,-8 12,-10 4,-3 8,-5 12,-7 12,-5 23,-8 32,-8z"/>
  <path id="3" fill="red" fill-rule="nonzero" d="M446 1038c0,7 2,14 4,20 3,7 7,12 13,18 5,4 10,7 15,9 5,2 11,3 16,3l3 0c5,0 9,0 13,-2 5,-1 9,-3 14,-7 5,-3 9,-7 12,-11 3,-5 5,-10 7,-15 0,-1 1,-3 1,-6 1,-2 1,-5 1,-8 0,-7 -1,-14 -4,-20 -2,-6 -6,-12 -12,-17 -5,-5 -10,-8 -16,-10 -5,-3 -11,-4 -17,-4 -14,0 -27,6 -38,18 -2,3 -4,6 -5,8 -2,3 -3,5 -4,7 -1,3 -1,6 -2,9 0,3 -1,6 -1,8zm49 -81l1 0c13,0 25,2 36,7 10,5 20,13 29,24 6,7 10,15 13,24 3,8 4,17 4,26l0 1c0,13 -3,24 -8,35 -5,11 -13,21 -24,29 -7,6 -15,10 -23,13 -9,3 -18,4 -27,4l-1 0c-25,0 -46,-10 -64,-31 -3,-4 -6,-8 -8,-12 -2,-4 -4,-8 -5,-11 -2,-5 -3,-9 -3,-14 -1,-4 -1,-9 -1,-13l0 -1c0,-25 10,-46 30,-64 14,-9 26,-15 38,-16 3,-1 8,-1 13,-1z"/>
  <path id="4" fill="red" fill-rule="nonzero" d="M595 988l0 -31 105 0c18,0 33,5 44,16 4,5 8,9 9,13 2,4 4,8 5,12 1,4 2,8 2,12l0 5c0,6 -2,12 -4,17 -3,6 -7,12 -12,18 -3,3 -6,6 -9,8 -3,2 -6,3 -9,4 14,15 21,34 21,58l-33 0 0 -2c0,-18 -8,-33 -22,-43 -8,-6 -19,-9 -32,-9l-65 0 0 -31 107 0c12,0 20,-6 24,-18 0,-1 0,-2 1,-3 0,-1 0,-2 0,-2 0,-7 -3,-13 -8,-18 -5,-4 -10,-5 -15,-5 0,-1 -1,-1 -5,-1l-104 0z"/>
  <path id="5" fill="red" fill-rule="nonzero" d="M860 989l-2 0c-15,0 -28,6 -39,20 -6,8 -9,19 -9,35l0 76 -33 0 0 -57c0,-27 0,-40 1,-40 0,-1 1,-4 2,-7 1,-3 2,-7 4,-12 4,-8 9,-16 16,-23 4,-4 9,-8 13,-10 3,-3 7,-5 11,-7 5,-2 11,-4 17,-5 5,-2 11,-2 18,-2 6,0 12,0 18,2 6,1 11,3 17,5 3,2 7,4 11,7 4,2 8,6 12,10 7,7 13,15 16,23 2,5 4,9 5,12 1,3 1,6 1,7 2,0 2,13 2,40l0 57 -33 0 0 -76c0,-16 -3,-27 -10,-35 -11,-14 -23,-20 -38,-20zm-17 131l0 -84 32 0 0 84 -32 0z"/>
  <path id="6" fill="red" fill-rule="nonzero" d="M1047 957l76 0 0 163 -33 0 0 -132 -29 1 -8 0c-16,0 -25,0 -27,2 -5,1 -9,3 -13,6 -5,2 -8,6 -12,10 -3,6 -6,11 -8,16 -2,5 -2,10 -2,15 0,7 1,13 3,19 3,6 6,11 11,16 4,4 7,6 9,8 3,2 6,3 8,4 5,2 13,3 25,3l23 0 0 32 -28 0c-10,0 -19,-1 -28,-4 -8,-2 -16,-6 -23,-12 -5,-4 -9,-8 -13,-11 -3,-4 -5,-7 -7,-11 -4,-7 -7,-13 -10,-20 -2,-7 -3,-14 -3,-21l0 -5c0,-10 2,-19 5,-28 4,-9 10,-18 17,-26 5,-4 9,-8 12,-11 4,-2 7,-4 10,-5 4,-3 10,-5 17,-7 7,-2 16,-2 28,-2z"/>
  <polygon id="7" fill="red" fill-rule="nonzero" points="1140,988 1140,957 1304,957 1304,988 1238,988 1238,1120 1205,1120 1205,988 "/>
  <polygon id="8" fill="red" fill-rule="nonzero" points="1321,1120 1321,957 1354,957 1354,1120 "/>
  <path id="9" fill="red" fill-rule="nonzero" d="M1404 1038c0,7 2,14 4,20 3,7 7,12 13,18 5,4 10,7 15,9 5,2 11,3 16,3l3 0c5,0 9,0 14,-2 4,-1 9,-3 13,-7 5,-3 9,-7 12,-11 3,-5 5,-10 7,-15 1,-1 1,-3 1,-6 1,-2 1,-5 1,-8 0,-7 -1,-14 -4,-20 -2,-6 -6,-12 -12,-17 -5,-5 -10,-8 -16,-10 -5,-3 -11,-4 -17,-4 -14,0 -27,6 -38,18 -2,3 -4,6 -5,8 -2,3 -3,5 -3,7 -2,3 -2,6 -3,9 0,3 -1,6 -1,8zm49 -81l2 0c12,0 24,2 35,7 11,5 20,13 29,24 6,7 10,15 13,24 3,8 4,17 4,26l0 1c0,13 -2,24 -8,35 -5,11 -13,21 -23,29 -8,6 -16,10 -24,13 -9,3 -18,4 -27,4l-1 0c-25,0 -46,-10 -64,-31 -3,-4 -6,-8 -8,-12 -2,-4 -4,-8 -5,-11 -1,-5 -3,-9 -3,-14 -1,-4 -1,-9 -1,-13l0 -1c0,-25 10,-46 30,-64 14,-9 26,-15 38,-16 3,-1 8,-1 13,-1z"/>
  <path id="10" fill="red" fill-rule="nonzero" d="M1701 989c2,2 4,4 5,6 1,2 2,4 2,5 1,2 2,5 3,7 1,2 2,5 3,8 3,8 4,18 4,31l0 74 -33 0 0 -77c0,-13 -3,-24 -9,-33 -6,-9 -15,-15 -26,-19 -3,-1 -6,-2 -8,-2 -2,-1 -5,-1 -7,-1 -2,0 -4,0 -6,1 -3,0 -5,1 -8,2 -11,4 -20,10 -26,19 -6,9 -9,20 -9,33l0 77 -33 0 0 -74c0,-13 1,-23 4,-31 1,-3 1,-6 2,-8 1,-3 2,-5 4,-7 1,-3 3,-7 7,-11 8,-11 18,-19 29,-24 11,-6 23,-8 36,-8 27,0 49,11 66,32z"/>
  <path id="11" fill="red" fill-rule="nonzero" d="M3354 957l110 0 0 33 -111 0c-9,0 -14,5 -16,13l0 3c0,5 3,9 8,12 2,1 4,1 6,1l56 0c14,0 24,2 29,5 13,5 22,14 26,26 2,3 3,7 4,10 0,4 1,7 1,11 0,8 -2,15 -6,22 -4,7 -10,13 -17,19 -3,1 -5,3 -8,4 -2,1 -5,2 -8,3 -2,0 -5,1 -9,1 -3,0 -8,0 -13,0l-104 0 0 -33 112 0c9,0 15,-5 18,-14l0 -3c0,-4 -1,-6 -2,-9 -2,-2 -5,-5 -8,-6 -2,-2 -5,-2 -9,-2l-62 0c-17,0 -30,-7 -41,-22 -5,-8 -8,-16 -8,-24l0 -4c0,-17 9,-30 25,-40 7,-4 16,-6 27,-6z"/>
  <path id="12" fill="red" fill-rule="nonzero" d="M3562 1054l0 -31 86 0 0 31 -86 0zm14 -97l72 0 0 31 -76 0c-14,0 -25,3 -32,8 -10,5 -17,15 -22,29 -1,5 -2,10 -2,13 0,12 5,24 14,35 3,3 6,5 9,7 3,2 6,3 8,4 3,2 7,3 11,3 3,1 8,1 13,1l77 0 0 32 -73 0c-10,0 -18,-1 -25,-2 -6,-1 -12,-3 -17,-5 -10,-4 -19,-10 -26,-17 -7,-7 -13,-16 -17,-26 -4,-10 -6,-20 -6,-32 0,-12 2,-23 7,-34 4,-10 12,-20 22,-28 6,-5 12,-9 17,-12 6,-2 12,-4 17,-5 5,-2 15,-2 29,-2z"/>
  <path id="13" fill="red" fill-rule="nonzero" d="M3665 988l0 -31 105 0c18,0 33,5 44,16 4,5 8,9 9,13 2,4 4,8 5,12 1,4 2,8 2,12l0 5c0,6 -2,12 -4,17 -3,6 -7,12 -12,18 -3,3 -6,6 -9,8 -3,2 -6,3 -9,4 14,15 21,34 21,58l-33 0 0 -2c0,-18 -8,-33 -22,-43 -8,-6 -19,-9 -32,-9l-65 0 0 -31 107 0c12,0 20,-6 24,-18 0,-1 0,-2 1,-3 0,-1 0,-2 0,-2 0,-7 -3,-13 -8,-18 -5,-4 -10,-5 -15,-5 0,-1 -1,-1 -5,-1l-104 0z"/>
  <polygon id="14" fill="red" fill-rule="nonzero" points="3930,1124 3847,957 3879,957 3930,1058 3983,957 4014,957 "/>
  <polygon id="15" fill="red" fill-rule="nonzero" points="4028,1120 4028,957 4061,957 4061,1120 "/>
  <path id="16" fill="red" fill-rule="nonzero" d="M4185 957l58 0 0 31 -76 0c-15,0 -27,4 -35,10 -2,2 -4,3 -6,5 -2,2 -4,5 -6,8 -6,9 -8,18 -8,28 0,9 3,19 10,29 5,8 14,14 26,18 4,2 10,2 19,2l76 0 0 31 -3 1 -70 0c-9,0 -18,-1 -25,-2 -7,-1 -12,-3 -17,-5 -10,-4 -19,-10 -26,-17 -7,-7 -12,-15 -17,-25 -4,-10 -6,-21 -6,-32 0,-10 1,-19 4,-28 3,-9 8,-17 14,-24 4,-4 7,-8 10,-11 3,-3 7,-5 10,-7 5,-3 11,-6 16,-8 5,-2 9,-3 14,-3 1,-1 5,-1 12,-1 6,0 15,0 26,0z"/>
  <path id="17" fill="red" fill-rule="nonzero" d="M4339 1054l0 -31 85 0 0 31 -85 0zm14 -97l71 0 0 31 -76 0c-14,0 -24,3 -31,8 -10,5 -17,15 -22,29 -2,5 -2,10 -2,13 0,12 4,24 14,35 3,3 6,5 8,7 3,2 6,3 9,4 3,2 6,3 10,3 4,1 9,1 14,1l76 0 0 32 -73 0c-9,0 -17,-1 -24,-2 -7,-1 -13,-3 -17,-5 -10,-4 -19,-10 -26,-17 -7,-7 -13,-16 -18,-26 -4,-10 -6,-20 -6,-32 0,-12 2,-23 7,-34 5,-10 12,-20 22,-28 6,-5 12,-9 18,-12 6,-2 11,-4 16,-5 6,-2 15,-2 30,-2z"/>
  <path id="18" fill="#00005C" fill-rule="nonzero" d="M1792 988l0 -31 105 0c19,0 33,5 44,16 5,5 8,9 10,13 2,4 3,8 4,12 1,4 2,8 2,12l0 5c0,6 -1,12 -4,17 -2,6 -6,12 -12,18 -3,3 -6,6 -9,8 -3,2 -6,3 -9,4 14,15 21,34 21,58l-33 0 0 -2c0,-18 -7,-33 -22,-43 -8,-6 -19,-9 -32,-9l-65 0 0 -31 107 0c12,0 20,-6 24,-18 0,-1 1,-2 1,-3 0,-1 0,-2 0,-2 0,-7 -2,-13 -8,-18 -5,-4 -10,-5 -15,-5 0,-1 -1,-1 -4,-1l-105 0z"/>
  <path id="19" fill="#00005C" fill-rule="nonzero" d="M2052 1054l0 -31 86 0 0 31 -86 0zm14 -97l72 0 0 31 -76 0c-14,0 -24,3 -32,8 -9,5 -17,15 -22,29 -1,5 -1,10 -1,13 0,12 4,24 13,35 3,3 6,5 9,7 3,2 6,3 8,4 3,2 7,3 11,3 4,1 8,1 13,1l77 0 0 32 -73 0c-9,0 -18,-1 -24,-2 -7,-1 -13,-3 -18,-5 -10,-4 -18,-10 -26,-17 -7,-7 -13,-16 -17,-26 -4,-10 -6,-20 -6,-32 0,-12 2,-23 7,-34 4,-10 12,-20 22,-28 6,-5 12,-9 18,-12 5,-2 11,-4 16,-5 5,-2 15,-2 29,-2z"/>
  <path id="20" fill="#00005C" fill-rule="nonzero" d="M2261 957l59 0 0 31 -77 0c-15,0 -26,4 -34,10 -2,2 -4,3 -6,5 -2,2 -4,5 -6,8 -6,9 -9,18 -9,28 0,9 4,19 10,29 6,8 14,14 26,18 5,2 11,2 19,2l77 0 0 31 -4 1 -69 0c-10,0 -18,-1 -25,-2 -7,-1 -13,-3 -17,-5 -10,-4 -19,-10 -26,-17 -7,-7 -13,-15 -17,-25 -4,-10 -7,-21 -7,-32 0,-10 2,-19 5,-28 3,-9 7,-17 14,-24 3,-4 7,-8 10,-11 3,-3 6,-5 10,-7 5,-3 10,-6 15,-8 5,-2 10,-3 15,-3 1,-1 5,-1 11,-1 7,0 15,0 26,0z"/>
  <path id="21" fill="#00005C" fill-rule="nonzero" d="M2370 1038c0,7 1,14 4,20 2,7 7,12 12,18 5,4 10,7 15,9 6,2 11,3 16,3l4 0c4,0 8,0 13,-2 4,-1 9,-3 13,-7 5,-3 9,-7 12,-11 3,-5 6,-10 7,-15 1,-1 1,-3 2,-6 0,-2 0,-5 1,-8 0,-7 -2,-14 -4,-20 -3,-6 -7,-12 -13,-17 -5,-5 -10,-8 -15,-10 -6,-3 -12,-4 -18,-4 -14,0 -27,6 -38,18 -2,3 -4,6 -5,8 -2,3 -3,5 -3,7 -1,3 -2,6 -3,9 0,3 0,6 0,8zm49 -81l1 0c12,0 24,2 35,7 11,5 20,13 29,24 6,7 11,15 13,24 3,8 4,17 4,26l0 1c0,13 -2,24 -7,35 -5,11 -13,21 -24,29 -8,6 -16,10 -24,13 -9,3 -17,4 -26,4l-2 0c-25,0 -46,-10 -64,-31 -3,-4 -6,-8 -8,-12 -2,-4 -4,-8 -5,-11 -1,-5 -2,-9 -3,-14 -1,-4 -1,-9 -1,-13l0 -1c0,-25 10,-46 30,-64 14,-9 27,-15 38,-16 3,-1 8,-1 14,-1z"/>
  <polygon id="22" fill="#00005C" fill-rule="nonzero" points="2602,1124 2518,957 2550,957 2602,1058 2654,957 2686,957 "/>
  <path id="23" fill="#00005C" fill-rule="nonzero" d="M2779 1054l0 -31 85 0 0 31 -85 0zm14 -97l71 0 0 31 -76 0c-14,0 -24,3 -31,8 -10,5 -18,15 -23,29 -1,5 -1,10 -1,13 0,12 4,24 13,35 3,3 6,5 9,7 3,2 6,3 8,4 3,2 7,3 11,3 4,1 8,1 13,1l77 0 0 32 -73 0c-9,0 -18,-1 -24,-2 -7,-1 -13,-3 -17,-5 -11,-4 -19,-10 -26,-17 -8,-7 -13,-16 -18,-26 -4,-10 -6,-20 -6,-32 0,-12 2,-23 7,-34 5,-10 12,-20 22,-28 6,-5 12,-9 18,-12 6,-2 11,-4 16,-5 5,-2 15,-2 30,-2z"/>
  <path id="24" fill="#00005C" fill-rule="nonzero" d="M2881 988l0 -31 105 0c19,0 33,5 44,16 5,5 8,9 10,13 2,4 3,8 4,12 1,4 2,8 2,12l0 5c0,6 -1,12 -4,17 -2,6 -6,12 -12,18 -3,3 -6,6 -9,8 -3,2 -6,3 -9,4 14,15 21,34 21,58l-33 0 0 -2c0,-18 -7,-33 -22,-43 -8,-6 -19,-9 -32,-9l-65 0 0 -31 108 0c11,0 19,-6 23,-18 1,-1 1,-2 1,-3 0,-1 0,-2 0,-2 0,-7 -2,-13 -8,-18 -4,-4 -9,-5 -15,-5 0,-1 -1,-1 -4,-1l-105 0z"/>
  <path id="25" fill="#00005C" fill-rule="nonzero" d="M3161 1120l-32 0 0 -27c-6,-1 -13,-4 -19,-7 -6,-3 -12,-6 -17,-11 -5,-4 -9,-7 -11,-11 -3,-3 -5,-6 -7,-9 -2,-3 -3,-6 -5,-9 -1,-3 -2,-7 -3,-11 -3,-7 -4,-18 -4,-30l0 -48 33 0 0 49c0,14 3,25 8,33 1,2 2,3 4,5 2,2 4,5 7,7 5,4 9,7 15,8 5,2 10,3 15,3 6,0 11,-1 16,-3 5,-1 10,-4 14,-8 4,-2 6,-5 8,-7 1,-2 3,-3 3,-5 6,-8 9,-19 9,-33l0 -49 33 0 0 48c0,6 -1,12 -1,17 -1,5 -2,10 -3,13 -1,4 -2,8 -4,11 -1,3 -3,6 -5,9 -1,3 -3,6 -6,9 -3,4 -7,7 -11,11 -6,5 -11,8 -18,11 -6,3 -12,6 -19,7l0 27z"/>
  <g id="_2042665699344">
   <path fill="#00005C" fill-rule="nonzero" d="M2181 810l-412 -210c-7,-3 -10,-12 -6,-18l293 -575c3,-6 12,-9 19,-5l411 210c7,3 10,12 6,18l-293 574c-3,7 -11,10 -18,6l0 0z"/>
   <polygon fill="red" fill-rule="nonzero" points="2238,839 2543,241 2663,302 2358,900 "/>
   <path fill="#2B2A29" fill-rule="nonzero" d="M1867 450c19,12 33,18 55,13 11,-3 31,-13 34,4 4,14 -16,31 -17,46 -2,18 12,33 14,50 2,29 -23,91 -59,66 -17,-11 -23,-29 -30,-46 -6,-17 -16,-28 -27,-41 -20,-24 9,-57 20,-81 2,-3 4,-7 5,-11l5 0z"/>
   <path fill="#2B2A29" fill-rule="nonzero" d="M2342 432c-53,105 -181,146 -285,93 -105,-53 -146,-181 -93,-286 54,-104 181,-145 286,-92 104,53 146,181 92,285z"/>
   <path fill="#2B2A29" fill-rule="nonzero" d="M2342 432c-53,105 -181,146 -285,93 -105,-53 -146,-181 -93,-286 54,-104 181,-145 286,-92 104,53 146,181 92,285z"/>
   <path fill="#2B2A29" fill-rule="nonzero" d="M1867 450c19,12 33,18 55,13 11,-3 31,-13 34,4 4,14 -16,31 -17,46 -2,18 12,33 14,50 2,29 -23,91 -59,66 -17,-11 -23,-29 -30,-46 -6,-17 -16,-28 -27,-41 -20,-24 9,-57 20,-81 2,-3 4,-7 5,-11l5 0z"/>
   <path fill="white" d="M2342 432c-53,105 -181,146 -285,93 -105,-53 -146,-181 -93,-286 54,-104 181,-145 286,-92 104,53 146,181 92,285z"/>
   <path fill="white" fill-rule="nonzero" stroke="#00005C" stroke-width="4.1818" d="M2103 510c-5,-2 -6,-7 -4,-12 2,-4 7,-6 12,-3 4,2 5,7 3,11 -2,5 -7,6 -11,4zm-31 9c-5,9 -24,15 -31,5 -15,-23 44,-26 31,-5zm47 -28c-11,-11 -33,-4 -46,-1 -20,5 -41,9 -61,10 -20,2 -39,-4 -59,-5 -37,0 -16,63 -8,83 9,19 15,20 29,7 11,-10 22,-12 34,-18 12,-5 22,-14 34,-18 21,-8 42,-18 63,-28 10,-5 25,-17 14,-30z"/>
   <path fill="white" fill-rule="nonzero" d="M1867 450c19,12 33,18 55,13 11,-3 31,-13 34,4 4,14 -16,31 -17,46 -2,18 12,33 14,50 2,29 -23,91 -59,66 -17,-11 -23,-29 -30,-46 -6,-17 -16,-28 -27,-41 -20,-24 9,-57 20,-81 2,-3 4,-7 5,-11l5 0z"/>
   <ellipse fill="white" stroke="#00005C" stroke-width="10.9758" transform="matrix(0.560813 0.286245 -0.309117 0.605623 2073.21 29.8786)" rx="31" ry="29"/>
   <ellipse fill="white" stroke="#00005C" stroke-width="10.9758" transform="matrix(0.560813 0.286245 -0.309117 0.605623 1791.18 582.446)" rx="31" ry="29"/>
   <ellipse fill="white" stroke="#00005C" stroke-width="10.9758" transform="matrix(0.560813 0.286245 -0.309117 0.605623 2166.01 773.764)" rx="31" ry="29"/>
   <ellipse fill="white" stroke="#00005C" stroke-width="10.9758" transform="matrix(0.560813 0.286245 -0.309117 0.605623 2448.05 221.197)" rx="31" ry="29"/>
   <path fill="white" fill-rule="nonzero" d="M2330 792c5,2 9,5 11,9 3,4 5,7 5,11 1,3 1,5 0,8 -1,3 -2,6 -4,9l-7 15 -49 -25 7 -15c2,-4 4,-7 6,-9 2,-2 4,-3 6,-4 3,-2 7,-3 12,-3 4,0 9,2 13,4zm-5 11c-4,-2 -7,-2 -10,-3 -2,0 -5,1 -7,2 -2,1 -3,2 -3,3 -1,1 -2,3 -3,5l-2 3 31 15 1 -2c2,-3 3,-5 3,-6 0,-1 0,-3 0,-4 0,-3 -1,-5 -3,-7 -2,-2 -4,-4 -7,-6zm54 -45l-6 11 -11 -2 -8 15 8 8 -5 11 -42 -41 6 -12 58 10zm-28 7l-20 -4 15 14 5 -10zm8 -66l-7 13 40 20 -6 11 -40 -20 -6 13 -10 -5 19 -37 10 5zm62 -24l-5 11 -12 -2 -8 15 9 8 -6 11 -41 -41 6 -12 57 10zm-27 7l-20 -4 15 14 5 -10zm18 -74c-1,0 -3,0 -4,-1 -1,0 -2,1 -3,2 -1,0 -1,1 -2,2 0,1 -1,2 -2,3l-2 4 14 7 1 -4c1,-1 2,-3 2,-4 1,-1 1,-2 0,-4 0,-1 0,-2 -1,-2 -1,-1 -2,-2 -3,-3zm43 1l-7 13 -24 2 -2 5 18 9 -6 11 -49 -25 9 -18c1,-2 3,-4 4,-6 1,-2 3,-3 4,-4 2,-1 4,-1 7,-1 2,0 4,0 7,2 4,1 6,4 8,6 1,3 2,6 2,9l29 -3zm17 -35l-15 30 -49 -25 15 -30 10 5 -10 19 8 5 9 -18 10 5 -9 18 12 6 10 -19 9 4zm16 -27c-2,3 -4,6 -6,8 -3,2 -6,3 -9,4 -3,1 -6,1 -10,0 -4,0 -8,-2 -12,-4 -4,-2 -7,-4 -10,-7 -2,-2 -4,-5 -6,-8 -1,-3 -2,-6 -1,-9 0,-4 1,-7 2,-10 1,-2 2,-3 3,-5 1,-1 2,-2 3,-3 1,-1 2,-2 3,-3 1,-1 2,-1 3,-2l12 6 -1 2c-1,0 -2,0 -3,1 -1,0 -2,1 -3,1 -1,1 -3,2 -4,3 -1,1 -2,2 -2,3 -1,2 -2,3 -2,5 0,2 0,3 1,5 1,2 2,4 4,5 2,2 4,4 7,5 3,2 6,3 8,3 3,0 5,0 6,0 2,-1 4,-2 5,-3 1,-1 2,-2 3,-3 1,-2 1,-3 1,-5 0,-1 0,-3 0,-4 0,-1 0,-3 -1,-4 0,-1 0,-2 0,-3l0 -1 12 6c0,2 0,3 0,4 0,1 0,2 0,4 -1,1 -1,3 -1,4 -1,1 -1,3 -2,5zm6 -76c8,4 13,9 16,15 3,7 2,13 -1,20 -4,6 -9,10 -15,12 -7,1 -14,0 -22,-4 -8,-4 -13,-9 -16,-15 -2,-7 -2,-13 1,-20 4,-6 9,-10 15,-12 7,-1 14,0 22,4zm5 21c-1,-2 -2,-4 -4,-5 -2,-2 -4,-3 -7,-5 -3,-1 -5,-2 -8,-3 -2,0 -4,0 -6,0 -2,0 -3,1 -4,2 -2,1 -3,2 -3,3 -1,1 -1,3 -1,4 0,2 0,3 1,5 1,2 2,3 4,5 2,2 4,3 7,5 3,1 5,2 8,3 2,0 4,0 6,0 2,0 3,-1 5,-2 1,-1 2,-2 3,-3 0,-2 1,-3 1,-5 0,-1 -1,-3 -2,-4zm-6 -79l41 40 -6 12 -57 -10 6 -11 40 7 -30 -27 6 -11zm68 -11l-16 30 -49 -25 15 -30 10 4 -10 20 8 4 10 -18 9 5 -9 18 12 6 10 -19 10 5zm-18 -50c-2,-1 -3,-1 -4,-1 -1,0 -2,0 -3,1 -1,1 -1,1 -2,2 0,1 -1,2 -2,4l-2 4 13 6 2 -3c1,-2 2,-3 2,-4 0,-2 0,-3 0,-4 0,-1 -1,-2 -1,-3 -1,0 -2,-1 -3,-2zm43 1l-7 13 -24 2 -3 5 19 9 -6 11 -49 -25 9 -18c1,-3 2,-5 4,-6 1,-2 2,-3 4,-4 2,-1 4,-2 6,-2 3,0 5,1 8,2 3,2 6,4 8,7 1,2 2,5 2,9l29 -3zm-29 -67l23 31 19 10 -6 11 -18 -10 -39 0 6 -12 24 1 -15 -19 6 -12z"/>
   <line fill="none" stroke="white" stroke-width="10.9758" x1="2530" y1="234" x2="2224" y2= "833" />
   <path fill="#00005C" fill-rule="nonzero" d="M2237 379c-24,46 -80,64 -126,40 -47,-23 -65,-80 -41,-126 23,-46 80,-64 126,-41 46,24 65,80 41,127z"/>
   <path fill="white" fill-rule="nonzero" d="M2232 376c-22,44 -75,61 -119,39 -44,-23 -61,-76 -39,-119 23,-44 76,-61 120,-39 43,22 60,76 38,119z"/>
   <path fill="#00005C" fill-rule="nonzero" d="M2228 374c-21,41 -72,57 -113,36 -41,-21 -57,-71 -36,-112 21,-41 71,-57 112,-36 41,20 58,71 37,112z"/>
   <path fill="white" fill-rule="nonzero" d="M2179 349c-7,14 -25,20 -39,13 -14,-7 -20,-25 -13,-39 8,-15 25,-21 40,-13 14,7 20,25 12,39z"/>
   <path fill="#00005C" fill-rule="nonzero" d="M2178 477c-5,-3 -21,7 -28,7 -7,0 -18,-2 -26,0 0,0 0,0 0,0 -15,-8 -42,-4 -53,9l2 -1c12,4 24,-4 37,-1 1,0 3,1 4,2 -1,5 2,10 8,13 -4,2 -7,5 -11,7 -6,3 -42,9 -34,20 6,8 17,-2 23,-4 16,-7 31,-6 36,-22 11,-3 20,-12 31,-16 4,-1 24,-6 11,-14z"/>
   <path fill="#00005C" fill-rule="nonzero" d="M2014 546c-6,13 -21,18 -33,11 -13,-6 -17,-21 -11,-33 6,-13 21,-18 33,-11 13,6 18,21 11,33z"/>
  </g>
 </g>
</svg>
