<?xml version="1.0" encoding="UTF-8"?>
<!DOCTYPE svg PUBLIC "-//W3C//DTD SVG 1.1//EN" "http://www.w3.org/Graphics/SVG/1.1/DTD/svg11.dtd">
<!-- Creator: CorelDRAW X7 -->
<svg xmlns="http://www.w3.org/2000/svg" xml:space="preserve" width="60.2792mm" height="19.3302mm" version="1.1" shape-rendering="geometricPrecision" text-rendering="geometricPrecision" image-rendering="optimizeQuality" fill-rule="evenodd" clip-rule="evenodd"
viewBox="0 0 1496 480"
 xmlns:xlink="http://www.w3.org/1999/xlink">
 <defs>
    <linearGradient id="id0" gradientUnits="userSpaceOnUse" x1="264.575" y1="292.723" x2="58.2522" y2="85.8248">
     <stop offset="0" stop-opacity="1" stop-color="#940063"/>
     <stop offset="0.501961" stop-opacity="1" stop-color="#FF5CD1"/>
     <stop offset="1" stop-opacity="1" stop-color="#591F43"/>
    </linearGradient>
 </defs>
 <g id="Слой_x0020_1">
  <metadata id="CorelCorpID_0Corel-Layer"/>
  <g id="_1923684085664">
   <g>
    <polygon fill="none" fill-rule="nonzero" stroke="#940063" stroke-width="3.38266" stroke-linecap="round" stroke-linejoin="round" points="381,133 381,8 361,8 361,133 "/>
   </g>
   <g>
    <polygon id="1" fill="none" fill-rule="nonzero" stroke="#2D0063" stroke-width="3.38266" stroke-linecap="round" stroke-linejoin="round" points="506,139 506,8 486,8 486,88 407,2 407,133 426,133 426,53 "/>
   </g>
   <g>
    <polygon id="2" fill="none" fill-rule="nonzero" stroke="#2D0063" stroke-width="3.38266" stroke-linecap="round" stroke-linejoin="round" points="552,25 608,25 608,8 551,8 551,8 532,8 532,133 552,133 552,77 598,77 598,59 552,59 "/>
   </g>
   <g>
    <path id="3" fill="none" fill-rule="nonzero" stroke="#2D0063" stroke-width="3.38266" stroke-linecap="round" stroke-linejoin="round" d="M673 133c9,0 17,-1 25,-5 7,-3 14,-7 20,-13 5,-6 10,-12 13,-20 3,-8 5,-16 5,-24 0,-9 -2,-17 -5,-25 -3,-8 -8,-14 -13,-20 -6,-6 -13,-10 -20,-13 -8,-4 -16,-5 -25,-5 -8,0 -17,1 -24,5 -8,3 -15,7 -20,13 -6,6 -11,12 -14,20 -3,8 -5,16 -5,25 0,8 2,16 5,24 3,8 8,14 14,20 5,6 12,10 20,13 7,4 16,5 24,5zm0 -106c12,0 23,5 31,13 8,8 12,19 12,31 0,11 -4,22 -12,30 -8,8 -19,13 -31,13 -11,0 -22,-5 -30,-13 -9,-8 -13,-19 -13,-30 0,-12 4,-23 13,-31 8,-8 19,-13 30,-13z"/>
   </g>
   <g>
    <path id="4" fill="none" fill-rule="nonzero" stroke="#2D0063" stroke-width="3.38266" stroke-linecap="round" stroke-linejoin="round" d="M812 88c7,-2 12,-6 15,-10 7,-7 10,-17 10,-29 0,-11 -3,-22 -10,-29 -5,-6 -15,-12 -31,-12l-21 0 0 0 -17 0 0 125 20 0 0 -42 14 0 32 42 22 0 -34 -45zm-34 -15l0 -48 18 0c8,0 14,3 18,7 4,5 5,12 5,17 0,5 -1,12 -5,17 -4,5 -10,7 -18,7l-18 0z"/>
   </g>
   <g>
    <polygon id="5" fill="none" fill-rule="nonzero" stroke="#2D0063" stroke-width="3.38266" stroke-linecap="round" stroke-linejoin="round" points="980,133 980,2 921,90 862,2 862,133 881,133 881,67 921,125 960,67 960,133 "/>
   </g>
   <g>
    <path id="6" fill="none" fill-rule="nonzero" stroke="#2D0063" stroke-width="3.38266" stroke-linecap="round" stroke-linejoin="round" d="M1085 133l22 0 -55 -131 -55 131 22 0 11 -27 44 0 11 27zm-48 -44l15 -38 15 38 -30 0z"/>
   </g>
   <g>
    <polygon id="7" fill="none" fill-rule="nonzero" stroke="#2D0063" stroke-width="3.38266" stroke-linecap="round" stroke-linejoin="round" points="1188,8 1099,8 1099,25 1133,25 1133,133 1153,133 1153,25 1188,25 "/>
   </g>
   <g>
    <polygon id="8" fill="none" fill-rule="nonzero" stroke="#2D0063" stroke-width="3.38266" stroke-linecap="round" stroke-linejoin="round" points="1225,133 1225,8 1206,8 1206,133 "/>
   </g>
   <g>
    <path id="9" fill="none" fill-rule="nonzero" stroke="#2D0063" stroke-width="3.38266" stroke-linecap="round" stroke-linejoin="round" d="M1310 133c9,0 17,-1 25,-5 7,-3 14,-7 20,-13 6,-6 10,-12 13,-20 4,-8 5,-16 5,-24 0,-9 -1,-17 -5,-25 -3,-8 -7,-14 -13,-20 -6,-6 -13,-10 -20,-13 -8,-4 -16,-5 -25,-5 -8,0 -16,1 -24,5 -8,3 -14,7 -20,13 -6,6 -10,12 -14,20 -3,8 -5,16 -5,25 0,8 2,16 5,24 4,8 8,14 14,20 6,6 12,10 20,13 8,4 16,5 24,5zm0 -106c12,0 23,5 31,13 8,8 13,19 13,31 0,11 -5,22 -13,30 -8,8 -19,13 -31,13 -11,0 -22,-5 -30,-13 -8,-8 -13,-19 -13,-30 0,-12 5,-23 13,-31 8,-8 19,-13 30,-13z"/>
   </g>
   <g>
    <polygon id="10" fill="none" fill-rule="nonzero" stroke="#2D0063" stroke-width="3.38266" stroke-linecap="round" stroke-linejoin="round" points="1494,139 1494,8 1474,8 1474,88 1395,2 1395,133 1415,133 1415,53 "/>
   </g>
   <g>
    <path id="11" fill="none" fill-rule="nonzero" stroke="#940063" stroke-width="3.38266" stroke-linecap="round" stroke-linejoin="round" d="M415 257c7,-2 12,-6 15,-9 6,-7 10,-18 10,-29 0,-12 -4,-22 -10,-29 -5,-6 -15,-13 -32,-13l-20 0 0 0 -17 0 0 126 20 0 0 -43 14 0 32 43 22 0 -34 -46zm-34 -14l0 -48 17 0c8,0 15,2 18,7 5,5 6,12 6,17 0,5 -1,12 -6,17 -3,4 -10,7 -18,7l-17 0z"/>
   </g>
   <g>
    <polygon id="12" fill="none" fill-rule="nonzero" stroke="#2D0063" stroke-width="3.38266" stroke-linecap="round" stroke-linejoin="round" points="489,195 545,195 545,177 489,177 489,177 470,177 470,303 489,303 489,303 545,303 545,285 489,285 489,246 535,246 535,228 489,228 "/>
   </g>
   <g>
    <path id="13" fill="none" fill-rule="nonzero" stroke="#2D0063" stroke-width="3.38266" stroke-linecap="round" stroke-linejoin="round" d="M655 266c-2,1 -3,3 -4,5 -9,8 -19,12 -31,12 -11,0 -22,-4 -30,-12 -9,-9 -13,-19 -13,-31 0,-11 4,-22 13,-30 8,-9 19,-13 30,-13 10,0 20,3 27,9l0 -23c0,0 -1,-1 -2,-1 -8,-3 -16,-5 -25,-5 -8,0 -17,2 -24,5 -8,3 -15,8 -20,13 -6,6 -11,13 -14,20 -3,8 -5,17 -5,25 0,9 2,17 5,24 3,8 8,15 14,20 5,6 12,11 20,14 7,3 16,5 24,5 9,0 17,-2 25,-5 3,-2 7,-3 10,-5l0 -27z"/>
   </g>
   <g>
    <path id="14" fill="none" fill-rule="nonzero" stroke="#2D0063" stroke-width="3.38266" stroke-linecap="round" stroke-linejoin="round" d="M732 303c8,0 17,-2 25,-5 7,-3 14,-8 20,-14 5,-5 10,-12 13,-20 3,-7 5,-15 5,-24 0,-8 -2,-17 -5,-25 -3,-7 -8,-14 -13,-20 -6,-5 -13,-10 -20,-13 -8,-3 -17,-5 -25,-5 -9,0 -17,2 -24,5 -8,3 -15,8 -20,13 -6,6 -11,13 -14,20 -3,8 -5,17 -5,25 0,9 2,17 5,24 3,8 8,15 14,20 5,6 12,11 20,14 7,3 15,5 24,5zm0 -106c11,0 22,4 30,13 9,8 13,19 13,30 0,12 -4,22 -13,31 -8,8 -19,12 -30,12 -12,0 -22,-4 -31,-12 -8,-9 -12,-19 -12,-31 0,-11 4,-22 12,-30 9,-9 19,-13 31,-13z"/>
   </g>
   <g>
    <polygon id="15" fill="none" fill-rule="nonzero" stroke="#2D0063" stroke-width="3.38266" stroke-linecap="round" stroke-linejoin="round" points="815,177 794,177 851,309 905,177 884,177 851,260 "/>
   </g>
   <g>
    <polygon id="16" fill="none" fill-rule="nonzero" stroke="#2D0063" stroke-width="3.38266" stroke-linecap="round" stroke-linejoin="round" points="942,195 998,195 998,177 942,177 942,177 923,177 923,303 942,303 942,303 998,303 998,285 942,285 942,246 988,246 988,228 942,228 "/>
   </g>
   <g>
    <path id="17" fill="none" fill-rule="nonzero" stroke="#2D0063" stroke-width="3.38266" stroke-linecap="round" stroke-linejoin="round" d="M1075 257c7,-2 12,-6 15,-9 6,-7 10,-18 10,-29 0,-12 -4,-22 -10,-29 -5,-6 -15,-13 -32,-13l-20 0 0 0 -17 0 0 126 20 0 0 -43 14 0 32 43 22 0 -34 -46zm-34 -14l0 -48 17 0c9,0 15,2 19,7 4,5 5,12 5,17 0,5 -1,12 -5,17 -4,4 -10,7 -19,7l-17 0z"/>
   </g>
   <g>
    <polygon id="18" fill="none" fill-rule="nonzero" stroke="#2D0063" stroke-width="3.38266" stroke-linecap="round" stroke-linejoin="round" points="1216,177 1195,177 1162,222 1129,177 1108,177 1152,237 1152,303 1172,303 1172,237 "/>
   </g>
   <g>
    <path id="19" fill="none" fill-rule="nonzero" stroke="#940063" stroke-width="3.38266" stroke-linecap="round" stroke-linejoin="round" d="M427 430c-2,-6 -5,-12 -11,-17 -2,-2 -6,-6 -9,-9l0 0 -21 -20c-5,-5 -6,-9 -5,-12 1,-3 5,-6 9,-7 4,-1 10,-1 17,7l15 -12c-5,-6 -10,-10 -17,-13 -6,-2 -12,-3 -19,-1 -5,1 -10,3 -15,7 -4,4 -7,9 -9,14 -1,5 -1,11 0,16 2,5 5,10 10,15l16 15c0,0 9,9 15,15 3,3 7,8 6,14 -2,5 -7,9 -14,10 -3,1 -7,1 -11,-1 -5,-1 -9,-5 -12,-10l-16 13c6,7 13,13 21,16 5,2 10,2 15,2 2,0 5,0 7,0 14,-3 25,-13 29,-25 1,-6 1,-12 -1,-17z"/>
   </g>
   <g>
    <polygon id="20" fill="none" fill-rule="nonzero" stroke="#2D0063" stroke-width="3.38266" stroke-linecap="round" stroke-linejoin="round" points="470,364 526,364 526,347 470,347 470,347 451,347 451,472 470,472 470,472 526,472 526,455 470,455 470,416 516,416 516,398 470,398 "/>
   </g>
   <g>
    <path id="21" fill="none" fill-rule="nonzero" stroke="#2D0063" stroke-width="3.38266" stroke-linecap="round" stroke-linejoin="round" d="M603 427c7,-2 12,-6 15,-10 6,-7 10,-17 10,-29 0,-11 -4,-22 -10,-29 -5,-6 -15,-12 -31,-12l-21 0 0 0 -17 0 0 125 20 0 0 -42 14 0 32 42 22 0 -34 -45zm-34 -15l0 -48 18 0c8,0 14,3 18,7 4,5 5,12 5,17 0,5 -1,12 -5,17 -4,5 -10,7 -18,7l-18 0z"/>
   </g>
   <g>
    <polygon id="22" fill="none" fill-rule="nonzero" stroke="#2D0063" stroke-width="3.38266" stroke-linecap="round" stroke-linejoin="round" points="657,347 636,347 693,478 747,347 726,347 693,430 "/>
   </g>
   <g>
    <polygon id="23" fill="none" fill-rule="nonzero" stroke="#2D0063" stroke-width="3.38266" stroke-linecap="round" stroke-linejoin="round" points="784,472 784,347 765,347 765,472 "/>
   </g>
   <g>
    <path id="24" fill="none" fill-rule="nonzero" stroke="#2D0063" stroke-width="3.38266" stroke-linecap="round" stroke-linejoin="round" d="M903 435c-2,2 -3,4 -4,5 -9,8 -19,13 -31,13 -11,0 -22,-5 -30,-13 -9,-8 -13,-19 -13,-30 0,-12 4,-23 13,-31 8,-8 19,-13 30,-13 10,0 20,4 27,10l0 -23c0,-1 -1,-1 -2,-1 -8,-4 -16,-5 -25,-5 -8,0 -17,1 -24,5 -8,3 -15,7 -20,13 -6,6 -11,13 -14,20 -3,8 -5,16 -5,25 0,8 2,16 5,24 3,8 8,14 14,20 5,6 12,10 20,14 7,3 16,4 24,4 9,0 17,-1 25,-4 3,-2 7,-4 10,-6l0 -27z"/>
   </g>
   <g>
    <polygon id="25" fill="none" fill-rule="nonzero" stroke="#2D0063" stroke-width="3.38266" stroke-linecap="round" stroke-linejoin="round" points="945,364 1001,364 1001,347 945,347 945,347 925,347 925,472 945,472 945,472 1001,472 1001,455 945,455 945,416 991,416 991,398 945,398 "/>
   </g>
   <g>
    <path id="26" fill="none" fill-rule="nonzero" stroke="#2D0063" stroke-width="3.38266" stroke-linecap="round" stroke-linejoin="round" d="M1090 430c-2,-6 -5,-12 -11,-17 -3,-2 -6,-6 -9,-9l0 0 -21 -20c-6,-5 -6,-9 -5,-12 1,-3 5,-6 9,-7 4,-1 10,-1 17,7l15 -12c-5,-6 -11,-10 -17,-13 -6,-2 -13,-3 -19,-1 -5,1 -11,3 -15,7 -4,4 -8,9 -9,14 -2,5 -1,11 0,16 2,5 5,10 10,15l15 15c1,0 10,9 16,15 3,3 7,8 6,14 -2,5 -7,9 -14,10 -3,1 -8,1 -11,-1 -5,-1 -9,-5 -13,-10l-15 13c6,7 13,13 21,16 4,2 9,2 15,2 2,0 5,0 7,0 14,-3 25,-13 29,-25 1,-6 1,-12 -1,-17z"/>
   </g>
   <polygon id="27" fill="#940063" fill-rule="nonzero" points="381,133 381,8 361,8 361,133 "/>
   <polygon id="28" fill="#2D0063" fill-rule="nonzero" points="506,139 506,8 486,8 486,88 407,2 407,133 426,133 426,53 "/>
   <polygon id="29" fill="#2D0063" fill-rule="nonzero" points="552,25 608,25 608,8 551,8 551,8 532,8 532,133 552,133 552,77 598,77 598,59 552,59 "/>
   <path id="30" fill="#2D0063" fill-rule="nonzero" d="M673 133c9,0 17,-1 25,-5 7,-3 14,-7 20,-13 5,-6 10,-12 13,-20 3,-8 5,-16 5,-24 0,-9 -2,-17 -5,-25 -3,-8 -8,-14 -13,-20 -6,-6 -13,-10 -20,-13 -8,-4 -16,-5 -25,-5 -8,0 -17,1 -24,5 -8,3 -15,7 -20,13 -6,6 -11,12 -14,20 -3,8 -5,16 -5,25 0,8 2,16 5,24 3,8 8,14 14,20 5,6 12,10 20,13 7,4 16,5 24,5zm0 -106c12,0 23,5 31,13 8,8 12,19 12,31 0,11 -4,22 -12,30 -8,8 -19,13 -31,13 -11,0 -22,-5 -30,-13 -9,-8 -13,-19 -13,-30 0,-12 4,-23 13,-31 8,-8 19,-13 30,-13z"/>
   <path id="31" fill="#2D0063" fill-rule="nonzero" d="M812 88c7,-2 12,-6 15,-10 7,-7 10,-17 10,-29 0,-11 -3,-22 -10,-29 -5,-6 -15,-12 -31,-12l-21 0 0 0 -17 0 0 125 20 0 0 -42 14 0 32 42 22 0 -34 -45zm-34 -15l0 -48 18 0c8,0 14,3 18,7 4,5 5,12 5,17 0,5 -1,12 -5,17 -4,5 -10,7 -18,7l-18 0z"/>
   <polygon id="32" fill="#2D0063" fill-rule="nonzero" points="980,133 980,2 921,90 862,2 862,133 881,133 881,67 921,125 960,67 960,133 "/>
   <path id="33" fill="#2D0063" fill-rule="nonzero" d="M1085 133l22 0 -55 -131 -55 131 22 0 11 -27 44 0 11 27zm-48 -44l15 -38 15 38 -30 0z"/>
   <polygon id="34" fill="#2D0063" fill-rule="nonzero" points="1188,8 1099,8 1099,25 1133,25 1133,133 1153,133 1153,25 1188,25 "/>
   <polygon id="35" fill="#2D0063" fill-rule="nonzero" points="1225,133 1225,8 1206,8 1206,133 "/>
   <path id="36" fill="#2D0063" fill-rule="nonzero" d="M1310 133c9,0 17,-1 25,-5 7,-3 14,-7 20,-13 6,-6 10,-12 13,-20 4,-8 5,-16 5,-24 0,-9 -1,-17 -5,-25 -3,-8 -7,-14 -13,-20 -6,-6 -13,-10 -20,-13 -8,-4 -16,-5 -25,-5 -8,0 -16,1 -24,5 -8,3 -14,7 -20,13 -6,6 -10,12 -14,20 -3,8 -5,16 -5,25 0,8 2,16 5,24 4,8 8,14 14,20 6,6 12,10 20,13 8,4 16,5 24,5zm0 -106c12,0 23,5 31,13 8,8 13,19 13,31 0,11 -5,22 -13,30 -8,8 -19,13 -31,13 -11,0 -22,-5 -30,-13 -8,-8 -13,-19 -13,-30 0,-12 5,-23 13,-31 8,-8 19,-13 30,-13z"/>
   <polygon id="37" fill="#2D0063" fill-rule="nonzero" points="1494,139 1494,8 1474,8 1474,88 1395,2 1395,133 1415,133 1415,53 "/>
   <path id="38" fill="#940063" fill-rule="nonzero" d="M415 257c7,-2 12,-6 15,-9 6,-7 10,-18 10,-29 0,-12 -4,-22 -10,-29 -5,-6 -15,-13 -32,-13l-20 0 0 0 -17 0 0 126 20 0 0 -43 14 0 32 43 22 0 -34 -46zm-34 -14l0 -48 17 0c8,0 15,2 18,7 5,5 6,12 6,17 0,5 -1,12 -6,17 -3,4 -10,7 -18,7l-17 0z"/>
   <polygon id="39" fill="#2D0063" fill-rule="nonzero" points="489,195 545,195 545,177 489,177 489,177 470,177 470,303 489,303 489,303 545,303 545,285 489,285 489,246 535,246 535,228 489,228 "/>
   <path id="40" fill="#2D0063" fill-rule="nonzero" d="M655 266c-2,1 -3,3 -4,5 -9,8 -19,12 -31,12 -11,0 -22,-4 -30,-12 -9,-9 -13,-19 -13,-31 0,-11 4,-22 13,-30 8,-9 19,-13 30,-13 10,0 20,3 27,9l0 -23c0,0 -1,-1 -2,-1 -8,-3 -16,-5 -25,-5 -8,0 -17,2 -24,5 -8,3 -15,8 -20,13 -6,6 -11,13 -14,20 -3,8 -5,17 -5,25 0,9 2,17 5,24 3,8 8,15 14,20 5,6 12,11 20,14 7,3 16,5 24,5 9,0 17,-2 25,-5 3,-2 7,-3 10,-5l0 -27z"/>
   <path id="41" fill="#2D0063" fill-rule="nonzero" d="M732 303c8,0 17,-2 25,-5 7,-3 14,-8 20,-14 5,-5 10,-12 13,-20 3,-7 5,-15 5,-24 0,-8 -2,-17 -5,-25 -3,-7 -8,-14 -13,-20 -6,-5 -13,-10 -20,-13 -8,-3 -17,-5 -25,-5 -9,0 -17,2 -24,5 -8,3 -15,8 -20,13 -6,6 -11,13 -14,20 -3,8 -5,17 -5,25 0,9 2,17 5,24 3,8 8,15 14,20 5,6 12,11 20,14 7,3 15,5 24,5zm0 -106c11,0 22,4 30,13 9,8 13,19 13,30 0,12 -4,22 -13,31 -8,8 -19,12 -30,12 -12,0 -22,-4 -31,-12 -8,-9 -12,-19 -12,-31 0,-11 4,-22 12,-30 9,-9 19,-13 31,-13z"/>
   <polygon id="42" fill="#2D0063" fill-rule="nonzero" points="815,177 794,177 851,309 905,177 884,177 851,260 "/>
   <polygon id="43" fill="#2D0063" fill-rule="nonzero" points="942,195 998,195 998,177 942,177 942,177 923,177 923,303 942,303 942,303 998,303 998,285 942,285 942,246 988,246 988,228 942,228 "/>
   <path id="44" fill="#2D0063" fill-rule="nonzero" d="M1075 257c7,-2 12,-6 15,-9 6,-7 10,-18 10,-29 0,-12 -4,-22 -10,-29 -5,-6 -15,-13 -32,-13l-20 0 0 0 -17 0 0 126 20 0 0 -43 14 0 32 43 22 0 -34 -46zm-34 -14l0 -48 17 0c9,0 15,2 19,7 4,5 5,12 5,17 0,5 -1,12 -5,17 -4,4 -10,7 -19,7l-17 0z"/>
   <polygon id="45" fill="#2D0063" fill-rule="nonzero" points="1216,177 1195,177 1162,222 1129,177 1108,177 1152,237 1152,303 1172,303 1172,237 "/>
   <path id="46" fill="#940063" fill-rule="nonzero" d="M427 430c-2,-6 -5,-12 -11,-17 -2,-2 -6,-6 -9,-9l0 0 -21 -20c-5,-5 -6,-9 -5,-12 1,-3 5,-6 9,-7 4,-1 10,-1 17,7l15 -12c-5,-6 -10,-10 -17,-13 -6,-2 -12,-3 -19,-1 -5,1 -10,3 -15,7 -4,4 -7,9 -9,14 -1,5 -1,11 0,16 2,5 5,10 10,15l16 15c0,0 9,9 15,15 3,3 7,8 6,14 -2,5 -7,9 -14,10 -3,1 -7,1 -11,-1 -5,-1 -9,-5 -12,-10l-16 13c6,7 13,13 21,16 5,2 10,2 15,2 2,0 5,0 7,0 14,-3 25,-13 29,-25 1,-6 1,-12 -1,-17z"/>
   <polygon id="47" fill="#2D0063" fill-rule="nonzero" points="470,364 526,364 526,347 470,347 470,347 451,347 451,472 470,472 470,472 526,472 526,455 470,455 470,416 516,416 516,398 470,398 "/>
   <path id="48" fill="#2D0063" fill-rule="nonzero" d="M603 427c7,-2 12,-6 15,-10 6,-7 10,-17 10,-29 0,-11 -4,-22 -10,-29 -5,-6 -15,-12 -31,-12l-21 0 0 0 -17 0 0 125 20 0 0 -42 14 0 32 42 22 0 -34 -45zm-34 -15l0 -48 18 0c8,0 14,3 18,7 4,5 5,12 5,17 0,5 -1,12 -5,17 -4,5 -10,7 -18,7l-18 0z"/>
   <polygon id="49" fill="#2D0063" fill-rule="nonzero" points="657,347 636,347 693,478 747,347 726,347 693,430 "/>
   <polygon id="50" fill="#2D0063" fill-rule="nonzero" points="784,472 784,347 765,347 765,472 "/>
   <path id="51" fill="#2D0063" fill-rule="nonzero" d="M903 435c-2,2 -3,4 -4,5 -9,8 -19,13 -31,13 -11,0 -22,-5 -30,-13 -9,-8 -13,-19 -13,-30 0,-12 4,-23 13,-31 8,-8 19,-13 30,-13 10,0 20,4 27,10l0 -23c0,-1 -1,-1 -2,-1 -8,-4 -16,-5 -25,-5 -8,0 -17,1 -24,5 -8,3 -15,7 -20,13 -6,6 -11,13 -14,20 -3,8 -5,16 -5,25 0,8 2,16 5,24 3,8 8,14 14,20 5,6 12,10 20,14 7,3 16,4 24,4 9,0 17,-1 25,-4 3,-2 7,-4 10,-6l0 -27z"/>
   <polygon id="52" fill="#2D0063" fill-rule="nonzero" points="945,364 1001,364 1001,347 945,347 945,347 925,347 925,472 945,472 945,472 1001,472 1001,455 945,455 945,416 991,416 991,398 945,398 "/>
   <path id="53" fill="#2D0063" fill-rule="nonzero" d="M1090 430c-2,-6 -5,-12 -11,-17 -3,-2 -6,-6 -9,-9l0 0 -21 -20c-6,-5 -6,-9 -5,-12 1,-3 5,-6 9,-7 4,-1 10,-1 17,7l15 -12c-5,-6 -11,-10 -17,-13 -6,-2 -13,-3 -19,-1 -5,1 -11,3 -15,7 -4,4 -8,9 -9,14 -2,5 -1,11 0,16 2,5 5,10 10,15l15 15c1,0 10,9 16,15 3,3 7,8 6,14 -2,5 -7,9 -14,10 -3,1 -8,1 -11,-1 -5,-1 -9,-5 -13,-10l-15 13c6,7 13,13 21,16 4,2 9,2 15,2 2,0 5,0 7,0 14,-3 25,-13 29,-25 1,-6 1,-12 -1,-17z"/>
   <path fill="url(#id0)" d="M323 189c0,89 -72,162 -162,162 -89,0 -161,-73 -161,-162 0,-89 72,-161 161,-161 90,0 162,72 162,161z"/>
   <path fill="#2D0063" fill-rule="nonzero" d="M233 189c0,40 -32,72 -72,72 -39,0 -71,-32 -71,-72 0,-39 32,-71 71,-71 40,0 72,32 72,71z"/>
   <path fill="#FAF9F6" fill-rule="nonzero" d="M229 189c0,37 -30,68 -68,68 -37,0 -67,-31 -67,-68 0,-37 30,-67 67,-67 38,0 68,30 68,67z"/>
   <path fill="#514742" fill-rule="nonzero" d="M227 189c0,37 -29,66 -66,66 -36,0 -66,-29 -66,-66 0,-36 30,-66 66,-66 37,0 66,30 66,66z"/>
   <path fill="#2D0063" fill-rule="nonzero" d="M225 189c0,35 -29,64 -64,64 -35,0 -63,-29 -63,-64 0,-35 28,-63 63,-63 35,0 64,28 64,63z"/>
   <path fill="#786A69" fill-rule="nonzero" d="M184 189c0,13 -10,23 -23,23 -12,0 -22,-10 -22,-23 0,-12 10,-22 22,-22 13,0 23,10 23,22z"/>
   <path fill="#837A75" fill-rule="nonzero" d="M182 189c0,12 -9,21 -21,21 -11,0 -20,-9 -20,-21 0,-11 9,-20 20,-20 12,0 21,9 21,20z"/>
   <path fill="#FEFEFE" fill-rule="nonzero" d="M181 189c0,11 -9,20 -20,20 -10,0 -19,-9 -19,-20 0,-11 9,-19 19,-19 11,0 20,8 20,19z"/>
   <path fill="#2D0063" fill-rule="nonzero" d="M227 276c-4,0 -12,13 -17,15 -4,3 -12,5 -17,9 0,0 -1,0 -1,0 -12,0 -29,12 -32,24l1 -1c10,-1 15,-11 24,-14 1,0 3,0 4,0 1,4 5,6 10,6 -2,3 -3,6 -5,9 -3,4 -26,20 -16,25 6,3 11,-7 14,-11 9,-9 19,-14 17,-27 6,-6 9,-14 15,-21 3,-3 15,-12 3,-14z"/>
   <path fill="#2D0063" fill-rule="nonzero" d="M205 295c4,-1 7,-1 11,-4 3,-3 8,-13 13,-11 -5,8 -22,37 -33,32 -11,-5 3,-15 9,-17z"/>
   <path fill="#2D0063" fill-rule="nonzero" d="M187 325c-3,0 -6,-3 -6,-7 0,-3 3,-6 6,-6 4,0 7,3 7,6 0,4 -3,7 -7,7zm-17 16c-1,8 -12,19 -20,15 -18,-11 21,-33 20,-15zm22 -34c-11,-5 -24,8 -32,15 -11,9 -24,19 -37,28 -14,8 -28,10 -42,17 -26,12 11,48 23,58 13,10 17,8 22,-5 4,-10 11,-16 17,-24 6,-7 10,-17 17,-24 12,-13 22,-27 32,-41 6,-7 12,-20 0,-24z"/>
   <path fill="#2B2A29" fill-rule="nonzero" d="M188 326c-3,0 -6,-3 -6,-7 0,-3 3,-6 6,-6 4,0 7,3 7,6 0,4 -3,7 -7,7zm-17 16c-1,8 -12,19 -20,14 -18,-10 21,-32 20,-14zm18 -31c-20,-3 -44,30 -60,39 -16,8 -31,16 -47,24l0 1c1,1 2,2 4,4 11,11 31,50 49,29 9,-10 13,-23 21,-33 5,-7 11,-13 16,-19 6,-6 38,-42 17,-45z"/>
   <path fill="#2D0063" fill-rule="nonzero" d="M187 325c-3,0 -6,-3 -6,-7 0,-3 3,-6 6,-6 4,0 7,3 7,6 0,4 -3,7 -7,7zm-17 16c-1,8 -12,19 -20,15 -18,-11 21,-33 20,-15zm18 -31c-20,-3 -44,30 -60,39 -16,8 -31,16 -47,24l0 1c1,1 2,2 4,4 12,11 31,50 50,29 8,-10 13,-23 20,-33 5,-7 11,-13 16,-19 6,-6 38,-42 17,-45z"/>
   <path fill="#2D0063" fill-rule="nonzero" d="M144 380c0,12 -10,23 -23,23 -12,0 -23,-11 -23,-23 0,-13 11,-23 23,-23 13,0 23,10 23,23z"/>
   <path fill="#2B2A29" fill-rule="nonzero" d="M142 380c0,11 -10,20 -21,20 -11,0 -20,-9 -20,-20 0,-11 9,-21 20,-21 11,0 21,10 21,21z"/>
   <path fill="white" fill-rule="nonzero" d="M140 380c0,10 -8,19 -19,19 -10,0 -19,-9 -19,-19 0,-11 9,-19 19,-19 11,0 19,8 19,19z"/>
   <path fill="#2D0063" fill-rule="nonzero" d="M7 365c17,2 29,2 41,-10 7,-6 17,-19 25,-9 7,9 0,27 4,37 6,13 20,18 27,30 12,18 16,69 -17,65 -15,-2 -25,-12 -36,-22 -10,-9 -20,-12 -33,-18 -21,-9 -13,-41 -14,-61 0,-3 0,-6 0,-10l3 -2z"/>
  </g>
 </g>
</svg>
